<?xml version="1.0" encoding="UTF-8" standalone="no"?>
<svg
   xmlns:dc="http://purl.org/dc/elements/1.1/"
   xmlns:cc="http://creativecommons.org/ns#"
   xmlns:rdf="http://www.w3.org/1999/02/22-rdf-syntax-ns#"
   xmlns:svg="http://www.w3.org/2000/svg"
   xmlns="http://www.w3.org/2000/svg"
   width="210mm"
   height="297mm"
   viewBox="0 0 210 297"
   version="1.1"
   id="svg8">
  <defs
     id="defs2" />
  <metadata
     id="metadata5">
    <rdf:RDF>
      <cc:Work
         rdf:about="">
        <dc:format>image/svg+xml</dc:format>
        <dc:type
           rdf:resource="http://purl.org/dc/dcmitype/StillImage" />
        <dc:title></dc:title>
      </cc:Work>
    </rdf:RDF>
  </metadata>
  <g
     id="layer1">
    <path
       id="rect833"
       style="fill:#000000;fill-opacity:1;stroke-width:0.87402"
       d="M 282.85742 431.42773 C 227.45742 431.42773 182.85742 476.02774 182.85742 531.42773 L 182.85742 891.42773 C 182.85742 946.82775 227.45742 991.42773 282.85742 991.42773 L 525.71484 991.42773 C 581.11486 991.42773 625.71484 946.82775 625.71484 891.42773 L 625.71484 531.42773 C 625.71484 476.02774 581.11486 431.42773 525.71484 431.42773 L 282.85742 431.42773 z M 405.71484 492.85742 C 421.54343 492.85742 434.28516 505.59919 434.28516 521.42773 L 434.28516 901.42773 C 434.28516 917.25628 421.54343 930 405.71484 930 C 389.8863 930 377.14258 917.25628 377.14258 901.42773 L 377.14258 521.42773 C 377.14258 505.59919 389.8863 492.85742 405.71484 492.85742 z M 511.42773 492.85742 C 527.25632 492.85742 540 505.59915 540 521.42773 L 540 901.42773 C 540 917.25632 527.25632 930 511.42773 930 C 495.59919 930 482.85742 917.25632 482.85742 901.42773 L 482.85742 521.42773 C 482.85742 505.59915 495.59919 492.85742 511.42773 492.85742 z M 300 494.28516 C 315.82857 494.28516 328.57227 507.02887 328.57227 522.85742 L 328.57227 902.85742 C 328.57227 918.68597 315.82857 931.42773 300 931.42773 C 284.17143 931.42773 271.42773 918.68597 271.42773 902.85742 L 271.42773 522.85742 C 271.42773 507.02887 284.17143 494.28516 300 494.28516 z "
       transform="scale(0.26458333)" />
    <rect
       style="opacity:1;fill:#000000;fill-opacity:1;stroke-width:0.0866011;stroke-miterlimit:4;stroke-dasharray:none"
       id="rect874"
       width="116.41666"
       height="22.687456"
       x="48.305355"
       y="83.901833"
       ry="6.6760416" />
    <path
       id="path876"
       style="opacity:1;fill:#000000;fill-opacity:1;stroke-width:0.747103;stroke-miterlimit:4;stroke-dasharray:none"
       d="M 404.28516 245.71484 A 67.142857 54.28571 0 0 0 337.14258 300 A 67.142857 54.28571 0 0 0 404.28516 354.28516 A 67.142857 54.28571 0 0 0 471.42773 300 A 67.142857 54.28571 0 0 0 404.28516 245.71484 z M 404.28516 271.42773 A 35.714285 37.142854 0 0 1 440 308.57227 A 35.714285 37.142854 0 0 1 438.26562 320 L 370.30469 320 A 35.714285 37.142854 0 0 1 368.57227 308.57227 A 35.714285 37.142854 0 0 1 404.28516 271.42773 z "
       transform="scale(0.26458333)" />
  </g>
</svg>
